<svg width="22" height="22" viewBox="0 0 22 22" fill="none" xmlns="http://www.w3.org/2000/svg">
<path opacity="0.6" d="M1.05847 5H3.25187H20.7991" stroke="#5061FC" stroke-width="2" stroke-linecap="round" stroke-linejoin="round"/>
<path fill-rule="evenodd" clip-rule="evenodd" d="M7.85818 2.32472C8.07641 2.12573 8.3906 2 8.73537 2H13.1222C13.4669 2 13.7811 2.12573 13.9994 2.32472C14.2145 2.5209 14.3156 2.76613 14.3156 3V4H16.3156V3C16.3156 2.173 15.9545 1.40082 15.3469 0.846853C14.7425 0.295694 13.9409 0 13.1222 0H8.73537C7.91669 0 7.11508 0.295694 6.51062 0.846853C5.90309 1.40082 5.54197 2.173 5.54197 3V4H7.54197V3C7.54197 2.76613 7.64303 2.5209 7.85818 2.32472ZM19.6057 6H17.6057V19C17.6057 19.2339 17.5046 19.4791 17.2895 19.6753C17.0712 19.8743 16.7571 20 16.4123 20H5.44526C5.10049 20 4.7863 19.8743 4.56807 19.6753C4.35292 19.4791 4.25186 19.2339 4.25186 19V6H3.25186H2.25186V19C2.25186 19.827 2.61298 20.5992 3.22052 21.1531C3.82497 21.7043 4.62658 22 5.44526 22H16.4123C17.231 22 18.0326 21.7043 18.637 21.1531C19.2446 20.5992 19.6057 19.827 19.6057 19V6Z" fill="#5061FC"/>
</svg>
