<svg width="25" height="21" viewBox="0 0 25 21" fill="none" xmlns="http://www.w3.org/2000/svg">
<path d="M9.58169 0C8.31108 0 7.09251 0.491665 6.19405 1.36683C5.2956 2.242 4.79085 3.42899 4.79085 4.66667C4.79085 5.90434 5.2956 7.09133 6.19405 7.9665C7.09251 8.84167 8.31108 9.33333 9.58169 9.33333C10.8523 9.33333 12.0709 8.84167 12.9693 7.9665C13.8678 7.09133 14.3725 5.90434 14.3725 4.66667C14.3725 3.42899 13.8678 2.242 12.9693 1.36683C12.0709 0.491665 10.8523 0 9.58169 0ZM9.58169 2.33333C10.217 2.33333 10.8263 2.57917 11.2755 3.01675C11.7247 3.45434 11.9771 4.04783 11.9771 4.66667C11.9771 5.2855 11.7247 5.879 11.2755 6.31658C10.8263 6.75417 10.217 7 9.58169 7C8.94639 7 8.3371 6.75417 7.88787 6.31658C7.43864 5.879 7.18627 5.2855 7.18627 4.66667C7.18627 4.04783 7.43864 3.45434 7.88787 3.01675C8.3371 2.57917 8.94639 2.33333 9.58169 2.33333ZM17.9657 9.33333C17.774 9.33333 17.6782 9.42667 17.6782 9.61333L17.3668 11.0833C17.1033 11.2933 16.7201 11.48 16.4326 11.6667L14.8995 11.0833C14.8037 11.0833 14.6121 11.0833 14.5163 11.2L13.3665 13.2533C13.2706 13.3467 13.2706 13.5333 13.4623 13.6267L14.7079 14.5833V15.75L13.4623 16.7067C13.3665 16.8 13.2706 16.9867 13.3665 17.08L14.5163 19.1333C14.6121 19.25 14.8037 19.25 14.8995 19.25L16.4326 18.6667C16.7201 18.8533 17.1033 19.04 17.3668 19.25L17.6782 20.72C17.6782 20.9067 17.774 21 17.9657 21H20.3611C20.4569 21 20.6486 20.9067 20.6486 20.72L20.8402 19.25C21.2235 19.04 21.6067 18.8533 21.8942 18.6667L23.3554 19.25C23.5231 19.25 23.7147 19.25 23.7147 19.1333L24.9603 17.08C25.0561 16.9867 24.9603 16.8 24.8645 16.7067L23.6189 15.75V14.5833L24.8645 13.6267C24.9603 13.5333 25.0561 13.3467 24.9603 13.2533L23.7147 11.2C23.7147 11.0833 23.5231 11.0833 23.3554 11.0833L21.8942 11.6667C21.6067 11.48 21.2235 11.2933 20.8402 11.0833L20.6486 9.61333C20.6486 9.42667 20.4569 9.33333 20.3611 9.33333H17.9657ZM9.58169 10.5C6.3838 10.5 0 12.0517 0 15.1667V18.6667H11.5819C11.2465 17.9783 11.007 17.2317 10.8872 16.45H2.27565V15.1667C2.27565 14.42 6.02449 12.7167 9.58169 12.7167C10.0967 12.7167 10.6237 12.7633 11.1387 12.8333C11.3783 12.0867 11.7016 11.3867 12.1208 10.745C11.1866 10.5933 10.3003 10.5 9.58169 10.5ZM19.2113 13.4167C20.1695 13.4167 20.96 14.1867 20.96 15.2133C20.96 16.1467 20.1695 16.9167 19.2113 16.9167C18.1573 16.9167 17.3668 16.1467 17.3668 15.2133C17.3668 14.1867 18.1573 13.4167 19.2113 13.4167Z" fill="#6674F4"/>
</svg>
