<svg width="25" height="23" viewBox="0 0 25 23" fill="none" xmlns="http://www.w3.org/2000/svg">
<path opacity="0.6" d="M11.1244 3.12131H3.44752C2.8658 3.12131 2.3079 3.33202 1.89655 3.70709C1.48521 4.08217 1.25412 4.59087 1.25412 5.12131V19.1213C1.25412 19.6517 1.48521 20.1604 1.89655 20.5355C2.3079 20.9106 2.8658 21.1213 3.44752 21.1213H18.8013C19.3831 21.1213 19.941 20.9106 20.3523 20.5355C20.7637 20.1604 20.9947 19.6517 20.9947 19.1213V12.1213" stroke="#5061FC" stroke-width="2" stroke-linecap="round" stroke-linejoin="round"/>
<path d="M19.3497 1.62132C19.786 1.2235 20.3777 1 20.9948 1C21.6118 1 22.2035 1.2235 22.6398 1.62132C23.0761 2.01915 23.3212 2.55871 23.3212 3.12132C23.3212 3.68393 23.0761 4.2235 22.6398 4.62132L12.2211 14.1213L7.83432 15.1213L8.93102 11.1213L19.3497 1.62132Z" stroke="#5061FC" stroke-width="2" stroke-linecap="round" stroke-linejoin="round"/>
</svg>
