<svg width="17" height="18" viewBox="0 0 17 18" fill="none" xmlns="http://www.w3.org/2000/svg">
<path d="M6.54545 16.3636H2.45455C2.00268 16.3636 1.63636 15.9973 1.63636 15.5455V2.45455C1.63636 2.00268 2.00268 1.63636 2.45455 1.63636H6.54545C6.99732 1.63636 7.36364 1.27005 7.36364 0.818182C7.36364 0.366312 6.99732 0 6.54545 0H2.45455C1.09894 0 0 1.09894 0 2.45455V15.5455C0 16.9011 1.09894 18 2.45455 18H6.54545C6.99732 18 7.36364 17.6337 7.36364 17.1818C7.36364 16.7299 6.99732 16.3636 6.54545 16.3636Z" fill="#3346F0"/>
<path d="M11.6942 11.6942C11.3746 12.0137 11.3746 12.5317 11.6942 12.8512C12.0137 13.1708 12.5317 13.1708 12.8513 12.8512L16.124 9.57851C16.4435 9.25899 16.4435 8.74094 16.124 8.42142L12.8513 5.1487C12.5317 4.82918 12.0137 4.82918 11.6942 5.1487C11.3746 5.46822 11.3746 5.98626 11.6942 6.30578L14.3884 8.99997L11.6942 11.6942Z" fill="#3346F0"/>
<path d="M15.5455 8.18182H5.7273C5.27543 8.18182 4.90912 8.54814 4.90912 9.00001C4.90912 9.45187 5.27543 9.81819 5.7273 9.81819H15.5455C15.9974 9.81819 16.3637 9.45187 16.3637 9.00001C16.3637 8.54814 15.9974 8.18182 15.5455 8.18182Z" fill="#5061FC"/>
</svg>
