<svg width="193" height="45" viewBox="0 0 193 45" fill="none" xmlns="http://www.w3.org/2000/svg">
<path d="M11.34 34.665C9.70667 34.665 8.26 34.385 7 33.825C5.76333 33.265 4.725 32.5183 3.885 31.585C3.045 30.6283 2.415 29.5667 1.995 28.4C1.575 27.21 1.365 25.9967 1.365 24.76V24.06C1.365 22.8 1.575 21.575 1.995 20.385C2.415 19.195 3.045 18.1333 3.885 17.2C4.725 16.2667 5.74 15.5317 6.93 14.995C8.14333 14.435 9.54333 14.155 11.13 14.155C13.1833 14.155 14.91 14.6217 16.31 15.555C17.7333 16.465 18.8183 17.6667 19.565 19.16C20.3117 20.6533 20.685 22.2633 20.685 23.99V25.88H6.65C6.83667 27.1867 7.30333 28.225 8.05 28.995C8.82 29.7417 9.91667 30.115 11.34 30.115C12.3433 30.115 13.1717 29.9283 13.825 29.555C14.5017 29.1583 14.9567 28.6567 15.19 28.05H20.335C19.915 30.01 18.9 31.6083 17.29 32.845C15.7033 34.0583 13.72 34.665 11.34 34.665ZM11.13 18.705C9.91667 18.705 8.925 19.055 8.155 19.755C7.40833 20.4317 6.93 21.4117 6.72 22.695H15.33C15.1433 21.4117 14.6883 20.4317 13.965 19.755C13.265 19.055 12.32 18.705 11.13 18.705ZM24.3958 34V14.82H28.8408V19.685C29.5875 16.045 31.6642 14.225 35.0708 14.225H35.3158C38.2792 14.225 40.2392 15.6133 41.1958 18.39C42.1758 15.6133 44.1475 14.225 47.1108 14.225H47.3558C49.5258 14.225 51.1825 14.9717 52.3258 16.465C53.4692 17.9583 54.0408 20.1633 54.0408 23.08V34H48.4408V22.765C48.4408 21.715 48.1608 20.8633 47.6008 20.21C47.0642 19.5567 46.2942 19.23 45.2908 19.23C44.2875 19.23 43.4942 19.5683 42.9108 20.245C42.3275 20.9217 42.0358 21.7967 42.0358 22.87V34H36.4008V22.765C36.4008 21.715 36.1208 20.8633 35.5608 20.21C35.0242 19.5567 34.2658 19.23 33.2858 19.23C32.2592 19.23 31.4542 19.5683 30.8708 20.245C30.2875 20.9217 29.9958 21.7967 29.9958 22.87V34H24.3958ZM58.8148 41V14.82H63.2598V19.685C63.8198 17.9117 64.7531 16.57 66.0598 15.66C67.3898 14.7267 68.9414 14.26 70.7148 14.26C72.4881 14.26 74.0281 14.6917 75.3348 15.555C76.6648 16.395 77.6914 17.55 78.4148 19.02C79.1614 20.49 79.5348 22.1467 79.5348 23.99V24.795C79.5348 26.6383 79.1848 28.3067 78.4848 29.8C77.7848 31.2933 76.7814 32.4717 75.4748 33.335C74.1681 34.1983 72.5814 34.63 70.7148 34.63C69.4081 34.63 68.2064 34.385 67.1098 33.895C66.0131 33.405 65.1148 32.6583 64.4148 31.655V41H58.8148ZM69.1398 29.94C70.5631 29.94 71.7064 29.4267 72.5698 28.4C73.4564 27.3733 73.8998 26.0317 73.8998 24.375C73.8998 22.7417 73.4564 21.4233 72.5698 20.42C71.7064 19.4167 70.5631 18.915 69.1398 18.915C68.2764 18.915 67.4714 19.1133 66.7248 19.51C66.0014 19.9067 65.4064 20.4783 64.9398 21.225C64.4964 21.9717 64.2748 22.8583 64.2748 23.885V25.18C64.2748 26.1833 64.5081 27.0467 64.9748 27.77C65.4648 28.47 66.0831 29.0067 66.8298 29.38C67.5764 29.7533 68.3464 29.94 69.1398 29.94ZM83.6691 34V12.58H81.3941V8.45H89.3041V34H83.6691ZM103.809 34.665C101.569 34.665 99.6558 34.21 98.0692 33.3C96.5058 32.39 95.3158 31.2 94.4992 29.73C93.6825 28.2367 93.2742 26.615 93.2742 24.865V24.06C93.2742 22.2633 93.6942 20.6183 94.5342 19.125C95.3975 17.6083 96.6108 16.4067 98.1742 15.52C99.7608 14.61 101.639 14.155 103.809 14.155C105.979 14.155 107.858 14.61 109.444 15.52C111.031 16.4067 112.244 17.6083 113.084 19.125C113.948 20.6183 114.379 22.2633 114.379 24.06V24.865C114.379 26.615 113.959 28.2367 113.119 29.73C112.303 31.2 111.113 32.39 109.549 33.3C107.986 34.21 106.073 34.665 103.809 34.665ZM103.809 29.94C105.419 29.94 106.644 29.4267 107.484 28.4C108.348 27.35 108.779 26.0433 108.779 24.48C108.779 22.87 108.336 21.54 107.449 20.49C106.586 19.4167 105.373 18.88 103.809 18.88C102.246 18.88 101.033 19.4167 100.169 20.49C99.3058 21.54 98.8742 22.87 98.8742 24.48C98.8742 26.0433 99.2942 27.35 100.134 28.4C100.974 29.4267 102.199 29.94 103.809 29.94ZM121.343 33.58L115.463 14.82H121.098L125.333 29.205H126.033L129.533 14.82H134.853L129.498 35.54C129.101 37.0333 128.565 38.2233 127.888 39.11C127.235 39.9967 126.348 40.6267 125.228 41C124.131 41.3967 122.743 41.595 121.063 41.595H117.633V36.835H121.623C122.51 36.835 123.198 36.66 123.688 36.31C124.201 35.96 124.575 35.33 124.808 34.42L124.983 33.58H121.343Z" fill="#222222"/>
<path d="M137.87 35V9.45H145.78L151.625 23.8H152.29L158.065 9.45H166.115V35H160.445V15.295L154.495 29.82H149.035L143.12 15.435V35H137.87ZM180.315 35.665C178.681 35.665 177.235 35.385 175.975 34.825C174.738 34.265 173.7 33.5183 172.86 32.585C172.02 31.6283 171.39 30.5667 170.97 29.4C170.55 28.21 170.34 26.9967 170.34 25.76V25.06C170.34 23.8 170.55 22.575 170.97 21.385C171.39 20.195 172.02 19.1333 172.86 18.2C173.7 17.2667 174.715 16.5317 175.905 15.995C177.118 15.435 178.518 15.155 180.105 15.155C182.158 15.155 183.885 15.6217 185.285 16.555C186.708 17.465 187.793 18.6667 188.54 20.16C189.286 21.6533 189.66 23.2633 189.66 24.99V26.88H175.625C175.811 28.1867 176.278 29.225 177.025 29.995C177.795 30.7417 178.891 31.115 180.315 31.115C181.318 31.115 182.146 30.9283 182.8 30.555C183.476 30.1583 183.931 29.6567 184.165 29.05H189.31C188.89 31.01 187.875 32.6083 186.265 33.845C184.678 35.0583 182.695 35.665 180.315 35.665ZM180.105 19.705C178.891 19.705 177.9 20.055 177.13 20.755C176.383 21.4317 175.905 22.4117 175.695 23.695H184.305C184.118 22.4117 183.663 21.4317 182.94 20.755C182.24 20.055 181.295 19.705 180.105 19.705Z" fill="#3346F0"/>
</svg>
